<svg xmlns="http://www.w3.org/2000/svg" width="462" height="368" viewBox="0 0 462 368">
    <path fill="#4081DF" fill-rule="nonzero" d="M395.606 186.947v162.075c0 4.949-1.815 9.24-5.432 12.847-3.611 3.621-7.899 5.435-12.847 5.435H267.698v-109.64h-73.097V367.3H84.971c-4.949 0-9.231-1.818-12.847-5.431-3.617-3.611-5.426-7.899-5.426-12.847V186.944L33.581 214.56c-2.285 1.522-4.57 2.19-6.855 1.998-2.475-.383-4.471-1.43-5.996-3.142L3.029 192.287c-1.525-1.902-2.19-4.145-1.997-6.713.194-2.57 1.237-4.616 3.14-6.136L209.457 8.417c6.09-4.949 13.323-7.423 21.698-7.423 8.376 0 15.61 2.474 21.694 7.423l69.662 58.245 73.089 60.814 62.522 51.962c1.899 1.523 2.946 3.569 3.141 6.132.198 2.571-.469 4.81-1.991 6.716l-17.703 21.125c-1.533 1.708-3.525 2.762-6.854 3.138-2.475 0-4.47-.663-5.996-1.991l-33.113-27.61z"/>
</svg>
